<svg xmlns="http://www.w3.org/2000/svg" xmlns:i="http://ns.adobe.com/AdobeIllustrator/10.0/" id="Layer_1" data-name="Layer 1" viewBox="0 0 841.89 228.89"><defs><style>      .cls-1, .cls-2, .cls-3, .cls-4, .cls-5 {        stroke-width: 0px;      }      .cls-1, .cls-2, .cls-4 {        fill-rule: evenodd;      }      .cls-1, .cls-5 {        fill: #fff;      }      .cls-2, .cls-3 {        fill: #ed1c24;      }      .cls-4 {        fill: #58595b;      }    </style></defs><g><g><polygon class="cls-1" points="183.55 8.81 130.81 25.79 104.76 56.2 164.9 91.62 181.62 95.18 193.68 40.34 183.55 8.81"></polygon><polygon class="cls-1" points="182.1 95.66 216.36 125.74 254.95 141.42 267.82 93.23 254.63 49.24 214.43 64.6 182.1 95.66"></polygon><polygon class="cls-1" points="184.84 181.54 187.9 139 181.63 95.18 140.78 111.18 105.73 135.45 130.81 166.18 184.84 181.54"></polygon><polygon class="cls-2" points="183.88 8.73 130.74 9.47 104.8 56.11 141.51 27.64 183.88 8.73"></polygon><polygon class="cls-4" points="159.18 53.12 183.88 8.73 104.8 56.11 155.4 55.41 181.48 95.14 159.18 53.12"></polygon><polygon class="cls-2" points="181.48 95.15 104.8 56.11 128.54 92.59 181.48 95.15"></polygon><polygon class="cls-2" points="206.67 47.22 183.88 8.73 181.48 95.15 184.9 89 206.67 47.22"></polygon><polygon class="cls-2" points="254.71 141.75 281.25 95.44 254.66 49.18 260.22 95.46 254.71 141.75"></polygon><polygon class="cls-4" points="229.41 97.72 254.71 141.75 254.66 49.18 229.38 93.27 182.11 95.52 229.41 97.72"></polygon><polygon class="cls-2" points="182.1 95.51 254.65 49.18 210.37 49.21 182.1 95.51"></polygon><polygon class="cls-2" points="210.48 140.37 254.71 141.76 182.1 95.5 185.61 101.6 210.48 140.37"></polygon><polygon class="cls-2" points="105.32 135.76 132.1 181.93 185.22 181.71 142.53 163.56 105.32 135.76"></polygon><polygon class="cls-4" points="155.89 135.55 105.32 135.77 185.22 181.71 159.74 137.73 181.28 95.37 155.89 135.55"></polygon><polygon class="cls-2" points="181.3 95.37 185.22 181.7 207.21 143.02 181.3 95.37"></polygon><polygon class="cls-2" points="127.42 96.88 105.32 135.77 181.3 95.36 174.31 95.38 127.42 96.88"></polygon></g><g><rect class="cls-5" x="440.62" y="63.97" width="3.72" height="20.88"></rect><path class="cls-5" d="M407.89,77.18c0,5.04-3.63,8.2-8.41,8.2s-8.41-3.16-8.41-8.2v-13.21h3.72v13.1c0,2.06,1.12,4.78,4.69,4.78s4.69-2.71,4.69-4.78v-13.1h3.72v13.21Z"></path><polygon class="cls-5" points="414.85 63.97 419.77 63.97 429.89 79.48 429.95 79.48 429.95 63.97 433.66 63.97 433.66 84.85 428.95 84.85 418.62 68.84 418.56 68.84 418.56 84.85 414.85 84.85 414.85 63.97"></polygon><polygon class="cls-5" points="448.88 63.97 453.16 63.97 458.85 79.75 464.72 63.97 468.73 63.97 460.29 84.85 457.08 84.85 448.88 63.97"></polygon><polygon class="cls-5" points="473.36 63.97 487.19 63.97 487.19 67.33 477.07 67.33 477.07 72.46 486.66 72.46 486.66 75.83 477.07 75.83 477.07 81.49 487.72 81.49 487.72 84.85 473.36 84.85 473.36 63.97"></polygon><path class="cls-5" d="M493.76,63.97h7.26c4.01,0,7.79,1.3,7.79,5.99,0,3.01-1.75,5.22-4.84,5.66l5.54,9.23h-4.48l-4.84-8.85h-2.71v8.85h-3.72v-20.88ZM500.37,72.81c2.09,0,4.54-.18,4.54-2.89,0-2.48-2.3-2.77-4.22-2.77h-3.21v5.66h2.89Z"></path><path class="cls-5" d="M524.97,68.45c-.8-1.12-2.21-1.65-3.66-1.65-1.71,0-3.42.77-3.42,2.68,0,4.19,9.91,1.8,9.91,9.23,0,4.48-3.54,6.67-7.64,6.67-2.6,0-5.13-.8-6.84-2.83l2.8-2.72c.91,1.39,2.48,2.18,4.13,2.18s3.66-.94,3.66-2.86c0-4.57-9.91-1.95-9.91-9.41,0-4.3,3.83-6.31,7.7-6.31,2.18,0,4.37.62,5.99,2.15l-2.71,2.86Z"></path><rect class="cls-5" x="533.96" y="63.97" width="3.72" height="20.88"></rect><polygon class="cls-5" points="548.92 67.33 542.51 67.33 542.51 63.97 559.03 63.97 559.03 67.33 552.63 67.33 552.63 84.85 548.92 84.85 548.92 67.33"></polygon><path class="cls-5" d="M568,63.97h3.22l9,20.88h-4.25l-1.95-4.78h-9.05l-1.89,4.78h-4.16l9.08-20.88ZM572.71,76.89l-3.21-8.49-3.28,8.49h6.49Z"></path><path class="cls-5" d="M595.16,68.45c-.79-1.12-2.21-1.65-3.65-1.65-1.71,0-3.42.77-3.42,2.68,0,4.19,9.91,1.8,9.91,9.23,0,4.48-3.54,6.67-7.64,6.67-2.6,0-5.13-.8-6.85-2.83l2.81-2.72c.91,1.39,2.48,2.18,4.13,2.18s3.66-.94,3.66-2.86c0-4.57-9.91-1.95-9.91-9.41,0-4.3,3.83-6.31,7.7-6.31,2.18,0,4.37.62,5.99,2.15l-2.72,2.86Z"></path></g><g><path class="cls-5" d="M358.45,141.08c1.89-4.83,2.86-10.22,2.86-16.01,0-8.15-1.72-15.35-5.1-21.42-3.38-6.06-7.73-10.49-12.93-13.17-5.23-2.7-13.38-4.06-24.22-4.06h-16.35v75.16h13.58c10.71,0,19.94-.72,23.5-1.83,3.86-1.21,7.49-3.43,10.8-6.6,3.32-3.16,5.96-7.22,7.86-12.06ZM336,146.47c-2.93,1.51-6,2.38-13,2.38h-7.45v-49.86h5.64c8.56,0,13.89,1.82,18.37,6.27,2.14,2.14,6.22,7.78,6.08,18.73-.17,13.46-5.31,20.21-9.64,22.48Z"></path><path class="cls-5" d="M416.27,116.69c2.35,0,4.36.64,5.99,1.91,1.62,1.27,2.77,3.11,3.4,5.47.63,2.29.93,6.76.93,13.67v23.75l12.41-4.72v-31.67c0-6.3-1.57-11.1-4.67-14.28-3.72-3.75-8.3-5.66-13.63-5.66-2.6,0-5.18.52-7.66,1.53-2.51,1.03-5.36,2.9-8.48,5.56l-1.24,1.05v-9.09l-12.56,4.72v52.55l12.56-4.72v-16.95c0-5.9.22-9.83.64-11.67.82-3.53,2.32-6.34,4.46-8.37,2.17-2.05,4.81-3.09,7.84-3.09Z"></path><path class="cls-5" d="M569.17,118.82c2.02-1.48,4.35-2.23,6.91-2.23,3.4,0,6,1.26,7.72,3.73,1.69,2.44,2.51,6.85,2.51,13.48v27.69l12.68-4.73v-27.45c0-6.67-.65-11.53-1.93-14.45-1.26-2.87-3.36-5.22-6.24-7.01-2.88-1.79-6.29-2.7-10.12-2.7s-7.18.85-10.3,2.51c-3.12,1.67-5.8,4.15-7.95,7.37l-.71,1.05-.58-1.13c-1.66-3.2-3.86-5.66-6.54-7.32-2.69-1.65-5.74-2.49-9.09-2.49s-6.49.64-9.32,1.91c-2.83,1.26-5.44,3.22-7.77,5.81l-1.31,1.45v-10.12l-12.57,4.72v52.55l12.57-4.72v-19.42c0-5.51.5-9.63,1.47-12.24.99-2.66,2.52-4.76,4.54-6.26,2.05-1.5,4.35-2.26,6.83-2.26,2.25,0,4.21.61,5.82,1.82,1.6,1.2,2.81,3.04,3.6,5.45.77,2.38,1.14,6.06,1.14,11.26v26.38l12.67-4.73v-19.78c0-5.57.47-9.52,1.44-12.07.98-2.59,2.5-4.64,4.51-6.1Z"></path><polygon class="cls-5" points="369.24 109.79 369.24 161.5 381.81 156.77 381.81 105.07 369.24 109.79"></polygon><polygon class="cls-3" points="369.24 92.87 369.24 102.36 381.81 97.64 381.81 88.15 369.24 92.87"></polygon><polygon class="cls-5" points="608.39 109.79 608.39 161.5 620.95 156.77 620.95 105.07 608.39 109.79"></polygon><polygon class="cls-3" points="608.39 92.87 608.39 102.36 620.95 97.64 620.95 88.15 608.39 92.87"></polygon><polygon class="cls-5" points="682.72 161.1 657.03 133.06 680.53 106.63 664.87 106.63 643.06 131.23 643.06 78.68 630.49 83.4 630.49 161.5 643.06 156.77 643.06 134.64 664.28 155.69 682.72 161.1"></polygon><path class="cls-5" d="M492.05,108.09v5.88l-1.29-1.32c-2.42-2.49-5.1-4.38-7.95-5.63-2.84-1.23-5.92-1.86-9.17-1.86-7.06,0-13.14,2.74-18.08,8.14-4.96,5.42-7.48,12.49-7.48,21.02s2.6,15.16,7.72,20.67c5.12,5.5,11.26,8.29,18.24,8.29,3.11,0,6.04-.57,8.69-1.69,2.65-1.11,5.35-2.97,8.03-5.55l1.27-1.22v6.67l12.57-4.72v-53.4l-12.57,4.72ZM492.19,136.58c-.02.1-.05.21-.07.31-.39,3.31-1.47,6.5-3.25,8.96-.25.38-.5.71-.77,1-.02.02-.04.03-.05.05,0,0-.01.02-.02.03-2.76,3.11-6.7,4.74-11.05,4.8-.14,0-.27.02-.4.02-.03,0-.06,0-.1,0-.04,0-.07,0-.11,0-.15,0-.29-.02-.44-.03-.42-.02-.83-.04-1.24-.08-.05,0-.09-.01-.14-.02-.5-.06-1-.14-1.49-.25-.04,0-.08-.02-.12-.03-.47-.11-.94-.24-1.4-.39-.07-.02-.13-.05-.2-.08-.42-.15-.84-.32-1.25-.51-.08-.04-.15-.08-.22-.11-.4-.2-.79-.4-1.18-.64-.06-.04-.12-.08-.18-.11-.39-.25-.78-.51-1.16-.8-.05-.04-.09-.07-.14-.11-.38-.29-.74-.6-1.1-.93-.08-.08-.16-.16-.25-.24-.22-.21-.45-.42-.66-.65-.06-.07-.12-.15-.18-.22-.05-.06-.11-.11-.17-.17-.14-.16-.26-.33-.39-.49-.15-.19-.3-.37-.44-.56-.15-.21-.29-.42-.44-.64-.19-.28-.38-.57-.55-.86-.03-.04-.05-.09-.07-.13-1.55-2.72-2.35-5.91-2.35-9.52,0-.03,0-.06,0-.09,0-.02,0-.04,0-.07,0-1.18.1-2.33.28-3.44.44-2.68,1.4-5.06,2.84-7.12.06-.08.11-.16.16-.24.21-.29.44-.57.67-.85.09-.1.16-.22.25-.32.04-.04.08-.08.12-.12.07-.07.12-.15.19-.23.17-.18.34-.33.51-.5.16-.15.31-.31.47-.46.21-.2.43-.38.66-.56.22-.18.43-.36.65-.52.12-.09.25-.18.38-.26,2.47-1.73,5.4-2.75,8.55-2.75,4.56,0,8.76,1.57,11.67,4.9.02.03.05.05.07.07.05.05.1.11.15.17.04.04.08.08.11.12.01.01.02.03.03.05.21.25.41.53.6.83,1.61,2.32,2.68,5.31,3.1,8.4,0,.04.02.08.03.11,0,.03.02.21.04.49.08.78.14,1.56.14,2.33,0,.12-.01.24-.01.36,0,.74-.02,1.49-.1,2.12Z"></path><path class="cls-5" d="M724.55,108.09v5.88l-1.29-1.32c-2.42-2.49-5.1-4.38-7.95-5.63-2.84-1.23-5.92-1.86-9.17-1.86-7.06,0-13.14,2.74-18.08,8.14-4.96,5.42-7.48,12.49-7.48,21.02s2.6,15.16,7.72,20.67c5.12,5.5,11.26,8.29,18.24,8.29,3.11,0,6.04-.57,8.69-1.69,2.65-1.11,5.35-2.97,8.03-5.55l1.27-1.22v6.67l12.57-4.72v-53.4l-12.57,4.72ZM724.69,136.58c-.02.1-.05.21-.07.31-.39,3.31-1.47,6.5-3.25,8.96-.25.38-.5.71-.77,1-.02.02-.04.03-.05.05,0,0-.01.02-.02.03-2.76,3.11-6.7,4.74-11.05,4.8-.14,0-.27.02-.4.02-.03,0-.06,0-.1,0-.04,0-.07,0-.11,0-.15,0-.29-.02-.44-.03-.42-.02-.83-.04-1.24-.08-.05,0-.09-.01-.14-.02-.5-.06-1-.14-1.49-.25-.04,0-.08-.02-.12-.03-.47-.11-.94-.24-1.4-.39-.07-.02-.13-.05-.2-.08-.42-.15-.84-.32-1.25-.51-.08-.04-.15-.08-.22-.11-.4-.2-.79-.4-1.18-.64-.06-.04-.12-.08-.18-.11-.39-.25-.78-.51-1.16-.8-.05-.04-.09-.07-.14-.11-.38-.29-.74-.6-1.1-.93-.08-.08-.16-.16-.25-.24-.22-.21-.45-.42-.66-.65-.06-.07-.12-.15-.18-.22-.05-.06-.11-.11-.17-.17-.14-.16-.26-.33-.39-.49-.15-.19-.3-.37-.44-.56-.15-.21-.29-.42-.44-.64-.19-.28-.38-.57-.55-.86-.03-.04-.05-.09-.07-.13-1.55-2.72-2.35-5.91-2.35-9.52,0-.03,0-.06,0-.09,0-.02,0-.04,0-.07,0-1.18.1-2.33.28-3.44.44-2.68,1.4-5.06,2.84-7.12.06-.08.11-.16.16-.24.21-.29.44-.57.67-.85.09-.1.16-.22.25-.32.04-.04.08-.08.12-.12.07-.07.12-.15.19-.23.17-.18.34-.33.51-.5.16-.15.31-.31.47-.46.21-.2.43-.38.66-.56.22-.18.43-.36.65-.52.12-.09.25-.18.38-.26,2.47-1.73,5.4-2.75,8.55-2.75,4.56,0,8.76,1.57,11.67,4.9.02.03.05.05.07.07.05.05.1.11.15.17.04.04.08.08.11.12.01.01.02.03.03.05.21.25.41.53.6.83,1.61,2.32,2.68,5.31,3.1,8.4,0,.04.02.08.03.11,0,.03.02.21.04.49.08.78.14,1.56.14,2.33,0,.12-.01.24-.01.36,0,.74-.02,1.49-.1,2.12Z"></path></g></g><g><path class="cls-5" d="M320.53,187c-1.06-1.35-3.17-1.99-4.77-1.99-1.86,0-4.43.84-4.43,3.08,0,5.45,13.77,1.94,13.77,12.42,0,6.67-5.36,9.84-11.53,9.84-3.84,0-7.22-1.14-10.05-3.76l4.69-5.15c1.35,1.77,3.55,2.83,5.74,2.83s4.56-1.01,4.56-3.13c0-5.49-14.02-2.53-14.02-12.5,0-6.38,5.53-9.71,11.4-9.71,3.38,0,6.63.89,9.17,3.12l-4.52,4.94Z"></path><path class="cls-5" d="M337.89,185.52h-8.53v-5.83h23.65v5.83h-8.53v24.07h-6.59v-24.07Z"></path><path class="cls-5" d="M358.37,179.69h6.59v29.9h-6.59v-29.9Z"></path><path class="cls-5" d="M373.33,179.69h6.59v12.42l11.62-12.42h8.62l-13.3,13.9,14.44,16.01h-9.21l-12.16-14.19v14.19h-6.59v-29.9Z"></path><path class="cls-5" d="M420.21,178.93c9.33,0,16.13,6.12,16.13,15.71s-6.8,15.71-16.13,15.71-16.13-6.12-16.13-15.71,6.8-15.71,16.13-15.71ZM420.21,204.28c5.62,0,9.29-4.05,9.29-9.63s-3.67-9.63-9.29-9.63-9.29,4.05-9.29,9.63,3.67,9.63,9.29,9.63Z"></path><path class="cls-5" d="M442.93,179.69h9.97l6.88,19.51h.08l6.93-19.51h9.93v29.9h-6.59v-22.93h-.08l-7.86,22.93h-5.03l-7.56-22.93h-.08v22.93h-6.59v-29.9Z"></path><path class="cls-5" d="M514.3,187c-1.06-1.35-3.17-1.99-4.77-1.99-1.86,0-4.43.84-4.43,3.08,0,5.45,13.77,1.94,13.77,12.42,0,6.67-5.36,9.84-11.53,9.84-3.84,0-7.22-1.14-10.05-3.76l4.69-5.15c1.35,1.77,3.55,2.83,5.74,2.83s4.56-1.01,4.56-3.13c0-5.49-14.02-2.53-14.02-12.5,0-6.38,5.53-9.71,11.4-9.71,3.38,0,6.63.89,9.17,3.12l-4.52,4.94Z"></path><path class="cls-5" d="M551.09,198.07c0,7.05-4.31,12.29-12.59,12.29s-12.63-5.24-12.63-12.29v-18.37h6.59v18.12c0,3.67,2.53,6.46,6.04,6.46s6-2.79,6-6.46v-18.12h6.59v18.37Z"></path><path class="cls-5" d="M559.28,179.69h11.57c6.12,0,11.28,2.11,11.28,9.08,0,4.18-2.24,7.43-6.46,8.19l7.6,12.63h-7.9l-6.25-11.95h-3.25v11.95h-6.59v-29.9ZM565.87,192.07h3.89c2.41,0,5.53-.08,5.53-3.34,0-3-2.7-3.46-5.11-3.46h-4.31v6.8Z"></path><path class="cls-5" d="M598.6,179.69h5.45l13.01,29.9h-7.43l-2.58-6.33h-11.61l-2.49,6.33h-7.26l12.92-29.9ZM601.13,188.39l-3.63,9.29h7.31l-3.67-9.29Z"></path><path class="cls-5" d="M622.17,179.69h11.15c5.24,0,10.94,1.1,10.94,7.6,0,3.34-2.07,5.62-5.15,6.59v.08c3.93.51,6.55,3.42,6.55,7.31,0,6.25-5.91,8.32-11.23,8.32h-12.25v-29.9ZM628.75,191.65h4.77c2.03,0,4.14-.84,4.14-3.25s-2.37-3.13-4.44-3.13h-4.48v6.38ZM628.75,204.02h5.91c2.07,0,4.39-.89,4.39-3.5,0-2.83-3.17-3.29-5.32-3.29h-4.98v6.8Z"></path><path class="cls-5" d="M661.49,179.69h5.45l13.01,29.9h-7.43l-2.58-6.33h-11.62l-2.49,6.33h-7.26l12.92-29.9ZM664.02,188.39l-3.63,9.29h7.31l-3.67-9.29Z"></path><path class="cls-5" d="M688.52,196.84l-11.24-17.15h8.19l6.33,11.19,6.72-11.19h7.81l-11.24,17.15v12.75h-6.59v-12.75Z"></path><path class="cls-5" d="M716.6,179.69h5.45l13.01,29.9h-7.43l-2.58-6.33h-11.61l-2.49,6.33h-7.26l12.92-29.9ZM719.14,188.39l-3.63,9.29h7.31l-3.67-9.29Z"></path></g><metadata></metadata></svg>